<?xml version="1.0" encoding="UTF-8" standalone="no"?>
<!DOCTYPE svg PUBLIC "-//W3C//DTD SVG 1.1//EN" "http://www.w3.org/Graphics/SVG/1.1/DTD/svg11.dtd">
<svg width="100%" height="100%" viewBox="0 0 14 14" version="1.1" xmlns="http://www.w3.org/2000/svg" xmlns:xlink="http://www.w3.org/1999/xlink" xml:space="preserve" xmlns:serif="http://www.serif.com/" style="fill-rule:evenodd;clip-rule:evenodd;stroke-linejoin:round;stroke-miterlimit:2;">
    <g id="Forma-1-copy-5" serif:id="Forma 1 copy 5" transform="matrix(1,0,0,1,-1082,-478.584)">
        <path d="M1093.3,482.199L1093.3,492.272C1093.3,492.444 1093.16,492.583 1092.99,492.583L1085.01,492.583C1084.84,492.583 1084.7,492.444 1084.7,492.272L1084.7,482.199L1093.3,482.199ZM1091.94,490.691L1091.94,483.913L1090.77,483.913L1090.77,490.691L1091.94,490.691ZM1089.59,490.691L1089.59,483.913L1088.41,483.913L1088.41,490.691L1089.59,490.691ZM1087.23,490.691L1087.23,483.913L1086.06,483.913L1086.06,490.691L1087.23,490.691ZM1091.33,478.584C1091.51,478.586 1091.65,478.725 1091.65,478.895L1091.65,480.402L1093.84,480.402C1094.02,480.402 1094.16,480.541 1094.16,480.713L1094.16,481.499C1094.16,481.671 1094.02,481.81 1093.84,481.81L1084.16,481.81C1083.98,481.81 1083.84,481.671 1083.84,481.499L1083.84,480.713C1083.84,480.542 1083.98,480.403 1084.16,480.402L1086.35,480.402L1086.35,478.895C1086.35,478.725 1086.49,478.586 1086.67,478.584L1091.33,478.584ZM1090.47,480.338L1090.47,479.75L1087.53,479.75L1087.53,480.338L1090.47,480.338Z" style="fill:rgb(101,101,101);"/>
    </g>
</svg>
