<svg 
	xmlns="http://www.w3.org/2000/svg"
	xmlns:xlink="http://www.w3.org/1999/xlink"
	width="21px" height="20px">
	<path fill-rule="evenodd"  fill="rgb(139, 129, 120)"
		d="M17.719,19.998 L3.274,19.998 C1.436,19.998 -0.008,18.531 -0.008,16.664 L-0.008,4.666 C-0.008,2.799 1.436,1.332 3.274,1.332 L5.901,1.332 L5.901,0.666 C5.901,0.266 6.163,-0.001 6.557,-0.001 C6.951,-0.001 7.214,0.266 7.214,0.666 L7.214,1.332 L13.779,1.332 L13.779,0.666 C13.779,0.266 14.042,-0.001 14.436,-0.001 C14.830,-0.001 15.092,0.266 15.092,0.666 L15.092,1.332 L17.719,1.332 C19.557,1.332 21.001,2.799 21.001,4.666 L21.001,16.664 C21.001,18.531 19.557,19.998 17.719,19.998 ZM1.305,16.664 C1.305,17.731 2.224,18.664 3.274,18.664 L17.719,18.664 C18.769,18.664 19.688,17.731 19.688,16.664 L19.688,7.998 L1.305,7.998 L1.305,16.664 ZM19.688,4.666 C19.688,3.599 18.769,2.666 17.719,2.666 L15.093,2.666 L15.093,3.332 C15.093,3.732 14.830,3.999 14.436,3.999 C14.042,3.999 13.779,3.732 13.779,3.332 L13.779,2.666 L7.214,2.666 L7.214,3.332 C7.214,3.732 6.951,3.999 6.557,3.999 C6.163,3.999 5.901,3.732 5.901,3.332 L5.901,2.666 L3.274,2.666 C2.224,2.666 1.305,3.599 1.305,4.666 L1.305,6.665 L19.688,6.665 L19.688,4.666 ZM16.406,16.664 C16.012,16.664 15.749,16.531 15.486,16.265 C15.224,15.998 15.092,15.598 15.092,15.331 C15.092,14.931 15.224,14.665 15.486,14.398 C16.012,13.865 16.800,13.865 17.325,14.398 C17.588,14.665 17.719,15.065 17.719,15.331 C17.719,15.598 17.588,15.998 17.325,16.265 C17.062,16.531 16.800,16.664 16.406,16.664 ZM16.406,12.665 C16.012,12.665 15.749,12.532 15.486,12.265 C15.224,11.998 15.092,11.598 15.092,11.332 C15.092,11.065 15.224,10.665 15.486,10.399 C16.012,9.865 16.800,9.865 17.325,10.399 C17.588,10.665 17.719,11.065 17.719,11.332 C17.719,11.732 17.588,11.998 17.325,12.265 C17.062,12.532 16.800,12.665 16.406,12.665 ZM12.466,16.664 C12.072,16.664 11.810,16.531 11.547,16.265 C11.284,15.998 11.153,15.598 11.153,15.331 C11.153,15.065 11.284,14.665 11.547,14.398 C12.072,13.865 12.860,13.865 13.386,14.398 C13.648,14.665 13.779,14.931 13.779,15.331 C13.779,15.732 13.648,15.998 13.386,16.265 C13.123,16.531 12.860,16.664 12.466,16.664 ZM12.466,12.665 C12.072,12.665 11.810,12.532 11.547,12.265 C11.284,11.998 11.153,11.598 11.153,11.332 C11.153,11.065 11.284,10.665 11.547,10.399 C12.072,9.865 12.860,9.865 13.386,10.399 C13.648,10.665 13.779,11.065 13.779,11.332 C13.779,11.732 13.648,11.998 13.386,12.265 C13.123,12.532 12.860,12.665 12.466,12.665 ZM8.527,16.664 C8.133,16.664 7.870,16.531 7.608,16.265 C7.345,15.998 7.214,15.598 7.214,15.331 C7.214,15.065 7.345,14.665 7.608,14.398 C8.133,13.865 8.921,13.865 9.446,14.398 C9.709,14.665 9.840,15.065 9.840,15.331 C9.840,15.598 9.709,15.998 9.446,16.265 C9.184,16.531 8.921,16.664 8.527,16.664 ZM8.527,12.665 C8.133,12.665 7.870,12.532 7.608,12.265 C7.345,11.998 7.214,11.598 7.214,11.332 C7.214,11.065 7.345,10.665 7.608,10.399 C8.133,9.865 8.921,9.865 9.446,10.399 C9.709,10.665 9.840,11.065 9.840,11.332 C9.840,11.598 9.709,11.998 9.446,12.265 C9.184,12.532 8.921,12.665 8.527,12.665 ZM4.588,16.664 C4.194,16.664 3.931,16.531 3.668,16.265 C3.406,15.998 3.274,15.598 3.274,15.331 C3.274,14.931 3.406,14.665 3.668,14.398 C4.194,13.865 4.981,13.865 5.507,14.398 C5.769,14.665 5.901,15.065 5.901,15.331 C5.901,15.598 5.769,15.998 5.507,16.265 C5.244,16.531 4.981,16.664 4.588,16.664 ZM4.588,12.665 C4.194,12.665 3.931,12.532 3.668,12.265 C3.406,11.998 3.274,11.732 3.274,11.332 C3.274,10.932 3.406,10.665 3.668,10.399 C4.194,9.865 4.981,9.865 5.507,10.399 C5.769,10.665 5.901,11.065 5.901,11.332 C5.901,11.598 5.769,11.998 5.507,12.265 C5.244,12.532 4.981,12.665 4.588,12.665 Z"/>
	</svg>