<svg 
xmlns="http://www.w3.org/2000/svg"
xmlns:xlink="http://www.w3.org/1999/xlink"
width="16px" height="16px">
<path fill-rule="evenodd"  fill="rgb(102, 102, 102)"
d="M15.970,14.573 L12.168,10.613 C13.145,9.449 13.681,7.984 13.681,6.460 C13.681,2.898 10.787,-0.000 7.231,-0.000 C3.675,-0.000 0.781,2.898 0.781,6.460 C0.781,10.022 3.675,12.920 7.231,12.920 C8.566,12.920 9.838,12.516 10.926,11.751 L14.757,15.741 C14.917,15.908 15.133,16.000 15.364,16.000 C15.582,16.000 15.789,15.916 15.947,15.764 C16.281,15.442 16.292,14.908 15.970,14.573 ZM7.231,1.685 C9.860,1.685 11.998,3.827 11.998,6.460 C11.998,9.093 9.860,11.234 7.231,11.234 C4.602,11.234 2.464,9.093 2.464,6.460 C2.464,3.827 4.602,1.685 7.231,1.685 Z"/>
</svg>