<?xml version="1.0" encoding="UTF-8" standalone="no"?>
<!DOCTYPE svg PUBLIC "-//W3C//DTD SVG 1.1//EN" "http://www.w3.org/Graphics/SVG/1.1/DTD/svg11.dtd">
<svg width="100%" height="100%" viewBox="0 0 28 28" version="1.1" xmlns="http://www.w3.org/2000/svg" xmlns:xlink="http://www.w3.org/1999/xlink" xml:space="preserve" xmlns:serif="http://www.serif.com/" style="fill-rule:evenodd;clip-rule:evenodd;stroke-linejoin:round;stroke-miterlimit:2;">
    <g id="Forma-1" serif:id="Forma 1" transform="matrix(1.12053,0,0,1.12053,-1414.18,-593.9)">
        <path d="M1281.34,536.342L1281.34,555.003L1265.01,555.003L1265.01,533.335L1278.3,533.335L1281.34,536.342ZM1279.92,553.56L1279.92,537.067L1277.57,537.067L1277.57,534.778L1266.42,534.778L1266.42,553.56L1279.92,553.56ZM1281.06,530.015L1284.1,533.021L1284.1,551.683L1282.06,551.683L1282.06,550.24L1282.68,550.24L1282.68,533.746L1280.33,533.746L1280.33,531.457L1269.18,531.457L1269.18,532.523L1267.77,532.523L1267.77,530.015L1281.06,530.015ZM1277.38,549.908C1278.11,549.909 1278.11,551.068 1277.38,551.069L1268.63,551.069C1267.9,551.069 1267.9,549.909 1268.63,549.908L1277.38,549.908ZM1277.54,547.316C1278.28,547.318 1278.28,548.475 1277.54,548.476L1268.8,548.476C1268.07,548.476 1268.07,547.318 1268.8,547.316L1277.54,547.316ZM1277.54,544.57C1278.28,544.571 1278.28,545.729 1277.54,545.73L1268.8,545.73C1268.07,545.73 1268.07,544.571 1268.8,544.57L1277.54,544.57ZM1277.54,542.026C1278.28,542.027 1278.28,543.185 1277.54,543.186L1268.8,543.186C1268.07,543.186 1268.07,542.027 1268.8,542.026L1277.54,542.026ZM1277.54,539.278C1278.28,539.279 1278.28,540.439 1277.54,540.44L1268.8,540.44C1268.07,540.44 1268.07,539.279 1268.8,539.278L1277.54,539.278Z" style="fill:rgb(101,101,101);"/>
    </g>
</svg>
