<?xml version="1.0" encoding="UTF-8" standalone="no"?>
<!DOCTYPE svg PUBLIC "-//W3C//DTD SVG 1.1//EN" "http://www.w3.org/Graphics/SVG/1.1/DTD/svg11.dtd">
<svg width="100%" height="100%" viewBox="0 0 20 18" version="1.1" xmlns="http://www.w3.org/2000/svg" xmlns:xlink="http://www.w3.org/1999/xlink" xml:space="preserve" xmlns:serif="http://www.serif.com/" style="fill-rule:evenodd;clip-rule:evenodd;stroke-linejoin:round;stroke-miterlimit:2;">
    <g transform="matrix(1,0,0,1,-996.183,-418.844)">
        <path id="Forma-1" serif:id="Forma 1" d="M1008.78,420.043L1008.78,419.443C1008.78,419.083 1009.02,418.844 1009.38,418.844C1009.74,418.844 1009.98,419.083 1009.98,419.443L1009.98,420.043L1012.38,420.043C1014.05,420.043 1015.37,421.363 1015.37,423.043L1015.37,433.842C1015.37,435.522 1014.05,436.842 1012.38,436.842L999.182,436.842C997.503,436.842 996.183,435.522 996.183,433.842L996.183,423.043C996.183,421.364 997.501,420.045 999.182,420.043L1001.58,420.043L1001.58,419.443C1001.58,419.083 1001.82,418.844 1002.18,418.844C1002.54,418.844 1002.78,419.083 1002.78,419.443L1002.78,420.043L1008.78,420.043ZM1012.38,435.642C1013.34,435.641 1014.17,434.802 1014.17,433.842L1014.17,426.043L997.383,426.043L997.383,433.842C997.383,434.802 998.222,435.642 999.182,435.642L1012.38,435.642ZM1003.98,433.842C1004.34,433.842 1004.58,433.722 1004.82,433.482C1005.06,433.243 1005.18,432.883 1005.18,432.643C1005.18,432.403 1005.06,432.043 1004.82,431.803C1004.34,431.323 1003.62,431.323 1003.14,431.803C1002.9,432.043 1002.78,432.403 1002.78,432.643C1002.78,432.883 1002.9,433.243 1003.14,433.482C1003.38,433.722 1003.62,433.842 1003.98,433.842ZM1007.58,433.842C1007.94,433.842 1008.18,433.722 1008.42,433.482C1008.66,433.243 1008.78,433.003 1008.78,432.643C1008.78,432.283 1008.66,432.043 1008.42,431.803C1007.94,431.323 1007.22,431.323 1006.74,431.803C1006.5,432.043 1006.38,432.403 1006.38,432.643C1006.38,432.883 1006.5,433.243 1006.74,433.482C1006.98,433.722 1007.22,433.842 1007.58,433.842ZM1011.18,433.842C1011.54,433.842 1011.77,433.722 1012.01,433.482C1012.25,433.243 1012.38,432.883 1012.38,432.643C1012.38,432.403 1012.25,432.043 1012.01,431.803C1011.54,431.323 1010.82,431.323 1010.34,431.803C1010.1,432.043 1009.98,432.283 1009.98,432.643C1009.98,432.883 1010.1,433.243 1010.34,433.482C1010.58,433.722 1010.82,433.842 1011.18,433.842ZM1000.38,433.842C1000.74,433.842 1000.98,433.722 1001.22,433.482C1001.46,433.243 1001.58,432.883 1001.58,432.643C1001.58,432.403 1001.46,432.043 1001.22,431.803C1000.74,431.323 1000.02,431.323 999.541,431.803C999.302,432.043 999.182,432.283 999.182,432.643C999.182,432.883 999.302,433.243 999.541,433.482C999.781,433.722 1000.02,433.842 1000.38,433.842ZM1003.98,430.243C1004.34,430.243 1004.58,430.123 1004.82,429.883C1005.06,429.643 1005.18,429.283 1005.18,429.043C1005.18,428.803 1005.06,428.443 1004.82,428.203C1004.34,427.723 1003.62,427.723 1003.14,428.203C1002.9,428.443 1002.78,428.803 1002.78,429.043C1002.78,429.283 1002.9,429.643 1003.14,429.883C1003.38,430.123 1003.62,430.243 1003.98,430.243ZM1007.58,430.243C1007.94,430.243 1008.18,430.123 1008.42,429.883C1008.66,429.643 1008.78,429.403 1008.78,429.043C1008.78,428.803 1008.66,428.443 1008.42,428.203C1007.94,427.723 1007.22,427.723 1006.74,428.203C1006.5,428.443 1006.38,428.803 1006.38,429.043C1006.38,429.283 1006.5,429.643 1006.74,429.883C1006.98,430.123 1007.22,430.243 1007.58,430.243ZM1011.18,430.243C1011.54,430.243 1011.77,430.123 1012.01,429.883C1012.25,429.643 1012.38,429.403 1012.38,429.043C1012.38,428.803 1012.25,428.443 1012.01,428.203C1011.54,427.723 1010.82,427.723 1010.34,428.203C1010.1,428.443 1009.98,428.803 1009.98,429.043C1009.98,429.283 1010.1,429.643 1010.34,429.883C1010.58,430.123 1010.82,430.243 1011.18,430.243ZM1000.38,430.243C1000.74,430.243 1000.98,430.123 1001.22,429.883C1001.46,429.643 1001.58,429.283 1001.58,429.043C1001.58,428.803 1001.46,428.443 1001.22,428.203C1000.74,427.723 1000.02,427.723 999.541,428.203C999.302,428.443 999.182,428.683 999.182,429.043C999.182,429.403 999.302,429.643 999.541,429.883C999.781,430.123 1000.02,430.243 1000.38,430.243ZM1014.17,424.843L1014.17,423.043C1014.17,422.083 1013.34,421.243 1012.38,421.243L1009.98,421.243L1009.98,421.843C1009.98,422.203 1009.74,422.443 1009.38,422.443C1009.02,422.443 1008.78,422.203 1008.78,421.843L1008.78,421.243L1002.78,421.243L1002.78,421.843C1002.78,422.203 1002.54,422.443 1002.18,422.443C1001.82,422.443 1001.58,422.203 1001.58,421.843L1001.58,421.243L999.182,421.243C998.222,421.243 997.383,422.083 997.383,423.043L997.383,424.843L1014.17,424.843Z" style="fill:rgb(201,79,15);"/>
    </g>
</svg>
