<?xml version="1.0" encoding="UTF-8" standalone="no"?>
<!DOCTYPE svg PUBLIC "-//W3C//DTD SVG 1.1//EN" "http://www.w3.org/Graphics/SVG/1.1/DTD/svg11.dtd">
<svg width="100%" height="100%" viewBox="0 0 28 56" version="1.1" xmlns="http://www.w3.org/2000/svg" xmlns:xlink="http://www.w3.org/1999/xlink" xml:space="preserve" xmlns:serif="http://www.serif.com/" style="fill-rule:evenodd;clip-rule:evenodd;stroke-linejoin:round;stroke-miterlimit:2;">
    <g id="Forma-1-copy" serif:id="Forma 1 copy" transform="matrix(1,0,0,1,-1491.15,-550.5)">
        <path d="M1511.68,598.318L1511.68,594.897C1511.68,594.571 1511.94,594.307 1512.27,594.307C1512.6,594.307 1512.86,594.571 1512.86,594.897L1512.86,598.663C1512.86,598.706 1512.84,598.745 1512.83,598.786C1512.84,598.827 1512.86,598.865 1512.86,598.908C1512.86,599.234 1512.6,599.499 1512.27,599.499L1498.03,599.499C1497.7,599.499 1497.44,599.234 1497.44,598.908C1497.44,598.865 1497.45,598.827 1497.46,598.786C1497.45,598.745 1497.44,598.706 1497.44,598.663L1497.44,594.897C1497.44,594.571 1497.7,594.307 1498.03,594.307C1498.35,594.307 1498.61,594.571 1498.61,594.897L1498.61,598.318L1511.68,598.318ZM1505.18,585.501C1504.86,585.501 1504.6,585.765 1504.6,586.091L1504.6,594.714L1502.04,592.143C1501.81,591.913 1501.44,591.913 1501.21,592.143C1500.98,592.374 1500.98,592.748 1501.21,592.978L1504.77,596.557C1504.88,596.672 1505.04,596.73 1505.18,596.73C1505.34,596.73 1505.49,596.672 1505.6,596.557L1509.16,592.978C1509.39,592.748 1509.39,592.374 1509.16,592.143C1508.93,591.913 1508.56,591.913 1508.33,592.143L1505.77,594.714L1505.77,586.091C1505.77,585.765 1505.51,585.501 1505.18,585.501Z" style="fill:white;"/>
    </g>
    <g id="Forma-1-copy1" serif:id="Forma 1 copy" transform="matrix(1,0,0,1,-1491.15,-578.5)">
        <path d="M1511.68,598.318L1511.68,594.897C1511.68,594.571 1511.94,594.307 1512.27,594.307C1512.6,594.307 1512.86,594.571 1512.86,594.897L1512.86,598.663C1512.86,598.706 1512.84,598.745 1512.83,598.786C1512.84,598.827 1512.86,598.865 1512.86,598.908C1512.86,599.234 1512.6,599.499 1512.27,599.499L1498.03,599.499C1497.7,599.499 1497.44,599.234 1497.44,598.908C1497.44,598.865 1497.45,598.827 1497.46,598.786C1497.45,598.745 1497.44,598.706 1497.44,598.663L1497.44,594.897C1497.44,594.571 1497.7,594.307 1498.03,594.307C1498.35,594.307 1498.61,594.571 1498.61,594.897L1498.61,598.318L1511.68,598.318ZM1505.18,585.501C1504.86,585.501 1504.6,585.765 1504.6,586.091L1504.6,594.714L1502.04,592.143C1501.81,591.913 1501.44,591.913 1501.21,592.143C1500.98,592.374 1500.98,592.748 1501.21,592.978L1504.77,596.557C1504.88,596.672 1505.04,596.73 1505.18,596.73C1505.34,596.73 1505.49,596.672 1505.6,596.557L1509.16,592.978C1509.39,592.748 1509.39,592.374 1509.16,592.143C1508.93,591.913 1508.56,591.913 1508.33,592.143L1505.77,594.714L1505.77,586.091C1505.77,585.765 1505.51,585.501 1505.18,585.501Z" style="fill:rgb(101,101,101);"/>
    </g>
</svg>
