<?xml version="1.0" encoding="UTF-8" standalone="no"?>
<!DOCTYPE svg PUBLIC "-//W3C//DTD SVG 1.1//EN" "http://www.w3.org/Graphics/SVG/1.1/DTD/svg11.dtd">
<svg width="100%" height="100%" viewBox="0 0 36 72" version="1.1" xmlns="http://www.w3.org/2000/svg" xmlns:xlink="http://www.w3.org/1999/xlink" xml:space="preserve" xmlns:serif="http://www.serif.com/" style="fill-rule:evenodd;clip-rule:evenodd;stroke-linejoin:round;stroke-miterlimit:2;">
    <g id="Shape-1-copy" serif:id="Shape 1 copy" transform="matrix(1,0,0,1,-1442.12,-35.0307)">
        <path d="M1451.12,62.036L1456.99,60.397L1456.43,59.842L1455.88,59.286L1453.87,57.281L1453.31,56.726L1452.76,56.171L1451.12,62.036ZM1453.65,55.125L1454.13,55.609L1454.62,56.092L1457.06,58.54L1457.55,59.024L1458.03,59.508L1466.26,51.278L1465.78,50.795L1465.29,50.311L1462.85,47.863L1462.36,47.379L1461.88,46.895L1453.65,55.125ZM1462.85,45.928L1463.81,46.896L1466.26,49.343L1467.23,50.311L1469.13,48.409L1464.75,44.026L1462.85,45.928Z" style="fill:rgb(201,79,15);"/>
    </g>
    <g id="Shape-1-copy1" serif:id="Shape 1 copy" transform="matrix(1,0,0,1,-1442.12,0.969338)">
        <path d="M1451.12,62.036L1456.99,60.397L1456.43,59.842L1455.88,59.286L1453.87,57.281L1453.31,56.726L1452.76,56.171L1451.12,62.036ZM1453.65,55.125L1454.13,55.609L1454.62,56.092L1457.06,58.54L1457.55,59.024L1458.03,59.508L1466.26,51.278L1465.78,50.795L1465.29,50.311L1462.85,47.863L1462.36,47.379L1461.88,46.895L1453.65,55.125ZM1462.85,45.928L1463.81,46.896L1466.26,49.343L1467.23,50.311L1469.13,48.409L1464.75,44.026L1462.85,45.928Z" style="fill:white;"/>
    </g>
</svg>
