<?xml version="1.0" encoding="UTF-8" standalone="no"?>
<!DOCTYPE svg PUBLIC "-//W3C//DTD SVG 1.1//EN" "http://www.w3.org/Graphics/SVG/1.1/DTD/svg11.dtd">
<svg width="100%" height="100%" viewBox="0 0 22 22" version="1.1" xmlns="http://www.w3.org/2000/svg" xmlns:xlink="http://www.w3.org/1999/xlink" xml:space="preserve" xmlns:serif="http://www.serif.com/" style="fill-rule:evenodd;clip-rule:evenodd;stroke-linecap:round;stroke-linejoin:round;stroke-miterlimit:1.5;">
    <g transform="matrix(1.06836,0,0,1.06836,-0.396539,-0.566154)">
        <circle cx="10.667" cy="10.826" r="9.828" style="fill:white;fill-opacity:0;stroke:rgb(152,152,152);stroke-width:0.94px;"/>
    </g>
    <g id="Forma-1-copy-25" serif:id="Forma 1 copy 25" transform="matrix(1,0,0,1,-542.5,-475)">
        <path d="M555.968,490.704L555.802,491.39C555.304,491.588 554.906,491.739 554.61,491.843C554.313,491.947 553.968,491.999 553.575,491.999C552.972,491.999 552.503,491.85 552.169,491.554C551.834,491.256 551.667,490.879 551.667,490.422C551.667,490.245 551.679,490.063 551.704,489.877C551.73,489.692 551.77,489.483 551.826,489.249L552.448,487.024C552.504,486.811 552.551,486.609 552.588,486.418C552.627,486.228 552.645,486.054 552.645,485.897C552.645,485.613 552.587,485.414 552.471,485.302C552.355,485.191 552.133,485.134 551.805,485.134C551.644,485.134 551.478,485.16 551.31,485.211C551.141,485.261 550.996,485.31 550.874,485.355L551.041,484.67C551.449,484.502 551.838,484.358 552.211,484.239C552.584,484.12 552.937,484.06 553.27,484.06C553.869,484.06 554.331,484.206 554.655,484.498C554.98,484.791 555.142,485.17 555.142,485.637C555.142,485.734 555.132,485.904 555.109,486.148C555.086,486.392 555.045,486.615 554.984,486.819L554.364,489.035C554.313,489.212 554.267,489.416 554.228,489.645C554.187,489.872 554.167,490.046 554.167,490.163C554.167,490.457 554.232,490.658 554.362,490.765C554.494,490.871 554.72,490.925 555.041,490.925C555.191,490.925 555.363,490.897 555.553,490.844C555.744,490.792 555.882,490.745 555.968,490.704ZM556.125,481.402C556.125,481.788 555.981,482.117 555.692,482.389C555.403,482.66 555.055,482.797 554.647,482.797C554.239,482.797 553.89,482.66 553.598,482.389C553.306,482.117 553.16,481.788 553.16,481.402C553.16,481.016 553.306,480.686 553.598,480.411C553.889,480.137 554.239,480 554.647,480C555.054,480 555.403,480.138 555.692,480.411C555.981,480.686 556.125,481.016 556.125,481.402Z" style="fill:rgb(101,101,101);fill-rule:nonzero;"/>
    </g>
</svg>
