<svg 
	xmlns="http://www.w3.org/2000/svg"
	xmlns:xlink="http://www.w3.org/1999/xlink"
	width="32px" height="32px">
	<path fill-rule="evenodd"  fill="rgb(153, 153, 153)"
		d="M16.000,32.000 C7.153,32.000 -0.000,24.847 -0.000,16.000 C-0.000,7.153 7.153,-0.000 16.000,-0.000 C24.847,-0.000 32.000,7.153 32.000,16.000 C32.000,24.847 24.847,32.000 16.000,32.000 ZM16.000,1.882 C8.282,1.882 1.882,8.282 1.882,16.000 C1.882,23.717 8.282,30.117 16.000,30.117 C23.717,30.117 30.117,23.717 30.117,16.000 C30.117,8.282 23.717,1.882 16.000,1.882 ZM18.447,14.870 C17.506,15.623 16.753,16.753 16.753,17.882 C16.941,18.447 16.565,18.823 16.000,18.823 C15.435,18.823 15.059,18.447 15.059,17.882 C15.059,16.188 15.812,14.494 17.318,13.364 C18.070,12.800 18.259,12.047 18.070,11.106 C17.882,10.353 17.318,9.600 16.376,9.412 C15.623,9.223 15.059,9.412 14.494,9.788 C13.929,10.164 13.741,10.917 13.741,11.482 C13.741,12.047 13.365,12.423 12.800,12.423 C12.235,12.423 11.859,12.047 11.859,11.482 C11.859,10.164 12.423,9.035 13.365,8.282 C14.306,7.529 15.623,7.153 16.753,7.529 C18.259,7.906 19.576,9.035 19.953,10.729 C20.329,12.235 19.765,13.741 18.447,14.870 ZM16.564,22.776 C16.753,22.965 16.941,23.153 16.941,23.529 C16.941,23.717 16.753,24.094 16.564,24.094 C16.564,24.282 16.188,24.470 16.000,24.470 C15.812,24.470 15.435,24.282 15.247,24.094 C15.059,23.906 15.059,23.717 15.059,23.529 C15.059,23.341 15.059,22.965 15.247,22.776 C15.623,22.400 16.188,22.400 16.564,22.776 Z"/>
	</svg>