<?xml version="1.0" encoding="UTF-8" standalone="no"?>
<!DOCTYPE svg PUBLIC "-//W3C//DTD SVG 1.1//EN" "http://www.w3.org/Graphics/SVG/1.1/DTD/svg11.dtd">
<svg width="100%" height="100%" viewBox="0 0 36 36" version="1.1" xmlns="http://www.w3.org/2000/svg" xmlns:xlink="http://www.w3.org/1999/xlink" xml:space="preserve" xmlns:serif="http://www.serif.com/" style="fill-rule:evenodd;clip-rule:evenodd;stroke-linejoin:round;stroke-miterlimit:2;">
    <g id="Forma-1-copy-8" serif:id="Forma 1 copy 8" transform="matrix(1,0,0,1,-781.925,-330.366)">
        <path d="M806.835,343.613C806.718,343.49 806.573,343.409 806.42,343.373C806.155,343.309 805.863,343.376 805.648,343.578L797.106,351.196L794.325,347.807C794.067,347.421 793.546,347.317 793.159,347.574C792.773,347.832 792.67,348.353 792.928,348.738L796.068,352.811L796.12,352.91L796.174,353.014L796.2,353.039L796.247,353.116L796.389,353.227L796.421,353.253L796.662,353.356L796.673,353.357C796.895,353.411 797.135,353.382 797.339,353.246L797.431,353.155L797.436,353.151L806.8,344.8C807.137,344.482 807.153,343.951 806.835,343.613Z" style="fill:white;fill-rule:nonzero;"/>
    </g>
</svg>
