<?xml version="1.0"?>
<svg xmlns="http://www.w3.org/2000/svg" xmlns:xlink="http://www.w3.org/1999/xlink" version="1.1" id="Layer_1" x="0px" y="0px" viewBox="0 0 512.13 512.13" style="enable-background:new 0 0 512.13 512.13;" xml:space="preserve" width="512px" height="512px"><g><g>
	<g>
		<path d="M256.065,0C114.43,0,0,114.298,0,256.065S114.298,512.13,256.065,512.13S512.13,397.832,512.13,256.065    S397.702,0,256.065,0z M256.065,477.892c-122.891,0-221.828-98.937-221.828-221.828S133.175,34.236,256.065,34.236    s221.828,98.937,221.828,221.828S378.956,477.892,256.065,477.892z" data-original="#000000" class="active-path" data-old_color="#000000" fill="#666666"/>
	</g>
</g><g>
	<g>
		<path d="M378.956,199.699c-6.769-6.771-17.054-6.771-23.953-0.002l-98.937,98.937l-98.937-98.937    c-6.769-6.769-17.054-6.769-23.953,0c-6.769,6.769-6.769,17.053,0,23.953l110.915,110.915c3.385,3.385,6.769,5.077,11.977,5.077    s8.592-1.692,10.284-3.385l112.606-112.606C385.725,216.883,385.725,206.599,378.956,199.699z" data-original="#000000" class="active-path" data-old_color="#000000" fill="#666666"/>
	</g>
</g></g> </svg>
