<?xml version="1.0" encoding="UTF-8" standalone="no"?>
<!DOCTYPE svg PUBLIC "-//W3C//DTD SVG 1.1//EN" "http://www.w3.org/Graphics/SVG/1.1/DTD/svg11.dtd">
<svg width="100%" height="100%" viewBox="0 0 36 72" version="1.1" xmlns="http://www.w3.org/2000/svg" xmlns:xlink="http://www.w3.org/1999/xlink" xml:space="preserve" xmlns:serif="http://www.serif.com/" style="fill-rule:evenodd;clip-rule:evenodd;stroke-linejoin:round;stroke-miterlimit:2;">
	<g id="Forma-1" serif:id="Forma 1" transform="matrix(1,0,0,1,-1487,-34.4996)">
		<path d="M1510.53,48.147L1510.53,61.1C1510.53,61.32 1510.35,61.499 1510.13,61.499L1499.87,61.499C1499.65,61.499 1499.47,61.32 1499.47,61.1L1499.47,48.147L1510.53,48.147ZM1508.79,59.067L1508.79,50.351L1507.27,50.351L1507.27,59.067L1508.79,59.067ZM1505.76,59.067L1505.76,50.351L1504.24,50.351L1504.24,59.067L1505.76,59.067ZM1502.73,59.067L1502.73,50.351L1501.21,50.351L1501.21,59.067L1502.73,59.067ZM1508,43.5C1508.23,43.502 1508.4,43.68 1508.4,43.9L1508.4,45.837L1511.23,45.837C1511.45,45.837 1511.63,46.016 1511.63,46.236L1511.63,47.247C1511.63,47.468 1511.45,47.647 1511.23,47.647L1498.77,47.647C1498.55,47.647 1498.37,47.468 1498.37,47.247L1498.37,46.236C1498.37,46.017 1498.55,45.839 1498.77,45.837L1501.6,45.837L1501.6,43.9C1501.6,43.68 1501.77,43.502 1502,43.5L1508,43.5ZM1506.89,45.754L1506.89,44.999L1503.11,44.999L1503.11,45.754L1506.89,45.754Z" style="fill:#797979;"/>
	</g>
	<g id="Forma-11" serif:id="Forma 1" transform="matrix(1,0,0,1,-1487,1.50038)">
		<path d="M1510.53,48.147L1510.53,61.1C1510.53,61.32 1510.35,61.499 1510.13,61.499L1499.87,61.499C1499.65,61.499 1499.47,61.32 1499.47,61.1L1499.47,48.147L1510.53,48.147ZM1508.79,59.067L1508.79,50.351L1507.27,50.351L1507.27,59.067L1508.79,59.067ZM1505.76,59.067L1505.76,50.351L1504.24,50.351L1504.24,59.067L1505.76,59.067ZM1502.73,59.067L1502.73,50.351L1501.21,50.351L1501.21,59.067L1502.73,59.067ZM1508,43.5C1508.23,43.502 1508.4,43.68 1508.4,43.9L1508.4,45.837L1511.23,45.837C1511.45,45.837 1511.63,46.016 1511.63,46.236L1511.63,47.247C1511.63,47.468 1511.45,47.647 1511.23,47.647L1498.77,47.647C1498.55,47.647 1498.37,47.468 1498.37,47.247L1498.37,46.236C1498.37,46.017 1498.55,45.839 1498.77,45.837L1501.6,45.837L1501.6,43.9C1501.6,43.68 1501.77,43.502 1502,43.5L1508,43.5ZM1506.89,45.754L1506.89,44.999L1503.11,44.999L1503.11,45.754L1506.89,45.754Z" style="fill:white;"/>
	</g>
</svg>
