<?xml version="1.0" encoding="UTF-8" standalone="no"?>
<!DOCTYPE svg PUBLIC "-//W3C//DTD SVG 1.1//EN" "http://www.w3.org/Graphics/SVG/1.1/DTD/svg11.dtd">
<svg width="100%" height="100%" viewBox="0 0 100 200" version="1.1" xmlns="http://www.w3.org/2000/svg" xmlns:xlink="http://www.w3.org/1999/xlink" xml:space="preserve" xmlns:serif="http://www.serif.com/" style="fill-rule:evenodd;clip-rule:evenodd;stroke-linejoin:round;stroke-miterlimit:2;">
    <g id="Forma-1" serif:id="Forma 1" transform="matrix(1,0,0,1,-830,-706)">
        <path d="M866.605,768.086L866.605,752.792C866.605,745.406 872.614,739.398 880,739.398C887.386,739.398 893.395,745.407 893.395,752.792L893.395,768.086L893.548,768.086C894,768.086 894.402,768.374 894.547,768.802L897.192,776.607C897.301,776.929 897.248,777.283 897.05,777.56C896.852,777.836 896.533,778 896.193,778L863.807,778C863.467,778 863.148,777.836 862.95,777.56C862.752,777.283 862.699,776.929 862.808,776.607L865.453,768.802C865.598,768.375 865.999,768.087 866.452,768.086L866.605,768.086ZM894.722,775.891L892.792,770.196L867.208,770.196L865.278,775.891L894.722,775.891ZM891.285,768.086L891.285,752.792C891.285,746.57 886.223,741.507 880,741.507C873.777,741.507 868.715,746.57 868.715,752.792L868.715,768.086L891.285,768.086ZM880,759.543C878.255,759.543 876.836,760.963 876.836,762.707C876.836,764.452 878.255,765.871 880,765.871C881.745,765.871 883.164,764.452 883.164,762.707C883.164,760.963 881.745,759.543 880,759.543ZM880,763.762C879.418,763.762 878.945,763.289 878.945,762.707C878.945,762.126 879.418,761.653 880,761.653C880.581,761.653 881.055,762.126 881.055,762.707C881.055,763.289 880.581,763.762 880,763.762ZM880,746.044C878.255,746.044 876.836,747.463 876.836,749.208L876.836,754.27C876.836,756.015 878.255,757.434 880,757.434C881.745,757.434 883.164,756.015 883.164,754.27L883.164,749.208C883.164,747.463 881.745,746.044 880,746.044ZM881.055,754.27C881.055,754.852 880.581,755.325 880,755.325C879.418,755.325 878.945,754.852 878.945,754.27L878.945,749.208C878.945,748.626 879.418,748.153 880,748.153C880.581,748.153 881.055,748.626 881.055,749.208L881.055,754.27ZM854.8,752.539C854.604,752.342 854.332,752.23 854.055,752.23C853.777,752.23 853.505,752.342 853.309,752.539C853.113,752.735 853,753.007 853,753.284C853,753.562 853.113,753.834 853.309,754.03C853.505,754.226 853.777,754.339 854.055,754.339C854.332,754.339 854.604,754.226 854.8,754.03C854.996,753.834 855.109,753.562 855.109,753.284C855.109,753.007 854.996,752.735 854.8,752.539ZM906.691,752.539C906.495,752.343 906.223,752.23 905.945,752.23C905.668,752.23 905.396,752.342 905.2,752.539C905.003,752.735 904.891,753.007 904.891,753.284C904.891,753.562 905.003,753.834 905.2,754.03C905.396,754.226 905.668,754.339 905.945,754.339C906.223,754.339 906.495,754.226 906.691,754.03C906.887,753.834 907,753.562 907,753.284C907,753.007 906.887,752.735 906.691,752.539ZM863.072,752.23C863.656,752.231 864.127,752.703 864.127,753.284C864.127,753.867 863.655,754.339 863.072,754.339L858.229,754.339C857.647,754.339 857.175,753.867 857.175,753.284C857.175,752.703 857.646,752.231 858.229,752.23L863.072,752.23ZM902.21,752.23C902.794,752.231 903.265,752.703 903.265,753.284C903.265,753.867 902.793,754.339 902.21,754.339L897.367,754.339C896.785,754.339 896.312,753.867 896.312,753.284C896.312,752.703 896.784,752.231 897.367,752.23L902.21,752.23ZM860.908,744.235L857.456,742.805C856.918,742.583 856.301,742.838 856.078,743.376C855.855,743.914 856.111,744.531 856.649,744.754L860.1,746.183C860.232,746.238 860.369,746.264 860.503,746.264C860.917,746.264 861.31,746.019 861.478,745.613C861.701,745.075 861.446,744.458 860.908,744.235ZM903.921,743.376C903.698,742.838 903.082,742.583 902.543,742.805L899.092,744.235C898.554,744.458 898.298,745.075 898.521,745.613C898.69,746.019 899.082,746.264 899.496,746.264C899.631,746.264 899.767,746.238 899.899,746.183L903.351,744.754C903.889,744.531 904.144,743.914 903.921,743.376ZM865.824,737.617L860.635,732.428C860.223,732.016 859.555,732.016 859.143,732.428C858.731,732.84 858.731,733.508 859.143,733.92L864.333,739.109C864.539,739.315 864.808,739.418 865.078,739.418C865.348,739.418 865.618,739.315 865.824,739.109C866.236,738.697 866.236,738.029 865.824,737.617ZM900.857,732.428C900.445,732.016 899.777,732.016 899.365,732.428L894.176,737.617C893.764,738.029 893.764,738.697 894.176,739.109C894.382,739.315 894.652,739.418 894.921,739.418C895.191,739.418 895.461,739.315 895.667,739.109L900.857,733.919C901.268,733.508 901.268,732.84 900.857,732.428ZM880.745,734.745C880.549,734.549 880.277,734.438 880,734.438C879.723,734.438 879.45,734.549 879.254,734.745C879.058,734.943 878.945,735.214 878.945,735.492C878.945,735.77 879.058,736.041 879.254,736.238C879.45,736.434 879.723,736.546 880,736.546C880.277,736.546 880.549,736.434 880.745,736.238C880.942,736.041 881.055,735.77 881.055,735.492C881.055,735.214 880.942,734.943 880.745,734.745ZM889.908,729.364C889.37,729.141 888.753,729.396 888.53,729.934L887.101,733.385C886.878,733.923 887.134,734.54 887.672,734.763C887.804,734.818 887.94,734.844 888.075,734.844C888.489,734.844 888.881,734.599 889.05,734.193L890.479,730.742C890.702,730.203 890.447,729.586 889.908,729.364ZM872.899,733.385L871.469,729.934C871.246,729.396 870.629,729.141 870.091,729.364C869.553,729.586 869.297,730.203 869.52,730.742L870.95,734.193C871.118,734.599 871.511,734.844 871.925,734.844C872.059,734.844 872.196,734.818 872.328,734.763C872.866,734.54 873.122,733.923 872.899,733.385ZM880,724C879.418,724 878.945,724.472 878.945,725.055L878.945,731.383C878.945,731.965 879.417,732.437 880,732.437C880.582,732.437 881.055,731.965 881.055,731.383L881.055,725.055C881.055,724.472 880.582,724 880,724Z" style="fill:rgb(101,101,101);"/>
    </g>
    <g id="Forma-11" serif:id="Forma 1" transform="matrix(1,0,0,1,-830,-603)">
        <path d="M866.605,768.086L866.605,752.792C866.605,745.406 872.614,739.398 880,739.398C887.386,739.398 893.395,745.407 893.395,752.792L893.395,768.086L893.548,768.086C894,768.086 894.402,768.374 894.547,768.802L897.192,776.607C897.301,776.929 897.248,777.283 897.05,777.56C896.852,777.836 896.533,778 896.193,778L863.807,778C863.467,778 863.148,777.836 862.95,777.56C862.752,777.283 862.699,776.929 862.808,776.607L865.453,768.802C865.598,768.375 865.999,768.087 866.452,768.086L866.605,768.086ZM894.722,775.891L892.792,770.196L867.208,770.196L865.278,775.891L894.722,775.891ZM891.285,768.086L891.285,752.792C891.285,746.57 886.223,741.507 880,741.507C873.777,741.507 868.715,746.57 868.715,752.792L868.715,768.086L891.285,768.086ZM880,759.543C878.255,759.543 876.836,760.963 876.836,762.707C876.836,764.452 878.255,765.871 880,765.871C881.745,765.871 883.164,764.452 883.164,762.707C883.164,760.963 881.745,759.543 880,759.543ZM880,763.762C879.418,763.762 878.945,763.289 878.945,762.707C878.945,762.126 879.418,761.653 880,761.653C880.581,761.653 881.055,762.126 881.055,762.707C881.055,763.289 880.581,763.762 880,763.762ZM880,746.044C878.255,746.044 876.836,747.463 876.836,749.208L876.836,754.27C876.836,756.015 878.255,757.434 880,757.434C881.745,757.434 883.164,756.015 883.164,754.27L883.164,749.208C883.164,747.463 881.745,746.044 880,746.044ZM881.055,754.27C881.055,754.852 880.581,755.325 880,755.325C879.418,755.325 878.945,754.852 878.945,754.27L878.945,749.208C878.945,748.626 879.418,748.153 880,748.153C880.581,748.153 881.055,748.626 881.055,749.208L881.055,754.27ZM854.8,752.539C854.604,752.342 854.332,752.23 854.055,752.23C853.777,752.23 853.505,752.342 853.309,752.539C853.113,752.735 853,753.007 853,753.284C853,753.562 853.113,753.834 853.309,754.03C853.505,754.226 853.777,754.339 854.055,754.339C854.332,754.339 854.604,754.226 854.8,754.03C854.996,753.834 855.109,753.562 855.109,753.284C855.109,753.007 854.996,752.735 854.8,752.539ZM906.691,752.539C906.495,752.343 906.223,752.23 905.945,752.23C905.668,752.23 905.396,752.342 905.2,752.539C905.003,752.735 904.891,753.007 904.891,753.284C904.891,753.562 905.003,753.834 905.2,754.03C905.396,754.226 905.668,754.339 905.945,754.339C906.223,754.339 906.495,754.226 906.691,754.03C906.887,753.834 907,753.562 907,753.284C907,753.007 906.887,752.735 906.691,752.539ZM863.072,752.23C863.656,752.231 864.127,752.703 864.127,753.284C864.127,753.867 863.655,754.339 863.072,754.339L858.229,754.339C857.647,754.339 857.175,753.867 857.175,753.284C857.175,752.703 857.646,752.231 858.229,752.23L863.072,752.23ZM902.21,752.23C902.794,752.231 903.265,752.703 903.265,753.284C903.265,753.867 902.793,754.339 902.21,754.339L897.367,754.339C896.785,754.339 896.312,753.867 896.312,753.284C896.312,752.703 896.784,752.231 897.367,752.23L902.21,752.23ZM860.908,744.235L857.456,742.805C856.918,742.583 856.301,742.838 856.078,743.376C855.855,743.914 856.111,744.531 856.649,744.754L860.1,746.183C860.232,746.238 860.369,746.264 860.503,746.264C860.917,746.264 861.31,746.019 861.478,745.613C861.701,745.075 861.446,744.458 860.908,744.235ZM903.921,743.376C903.698,742.838 903.082,742.583 902.543,742.805L899.092,744.235C898.554,744.458 898.298,745.075 898.521,745.613C898.69,746.019 899.082,746.264 899.496,746.264C899.631,746.264 899.767,746.238 899.899,746.183L903.351,744.754C903.889,744.531 904.144,743.914 903.921,743.376ZM865.824,737.617L860.635,732.428C860.223,732.016 859.555,732.016 859.143,732.428C858.731,732.84 858.731,733.508 859.143,733.92L864.333,739.109C864.539,739.315 864.808,739.418 865.078,739.418C865.348,739.418 865.618,739.315 865.824,739.109C866.236,738.697 866.236,738.029 865.824,737.617ZM900.857,732.428C900.445,732.016 899.777,732.016 899.365,732.428L894.176,737.617C893.764,738.029 893.764,738.697 894.176,739.109C894.382,739.315 894.652,739.418 894.921,739.418C895.191,739.418 895.461,739.315 895.667,739.109L900.857,733.919C901.268,733.508 901.268,732.84 900.857,732.428ZM880.745,734.745C880.549,734.549 880.277,734.438 880,734.438C879.723,734.438 879.45,734.549 879.254,734.745C879.058,734.943 878.945,735.214 878.945,735.492C878.945,735.77 879.058,736.041 879.254,736.238C879.45,736.434 879.723,736.546 880,736.546C880.277,736.546 880.549,736.434 880.745,736.238C880.942,736.041 881.055,735.77 881.055,735.492C881.055,735.214 880.942,734.943 880.745,734.745ZM889.908,729.364C889.37,729.141 888.753,729.396 888.53,729.934L887.101,733.385C886.878,733.923 887.134,734.54 887.672,734.763C887.804,734.818 887.94,734.844 888.075,734.844C888.489,734.844 888.881,734.599 889.05,734.193L890.479,730.742C890.702,730.203 890.447,729.586 889.908,729.364ZM872.899,733.385L871.469,729.934C871.246,729.396 870.629,729.141 870.091,729.364C869.553,729.586 869.297,730.203 869.52,730.742L870.95,734.193C871.118,734.599 871.511,734.844 871.925,734.844C872.059,734.844 872.196,734.818 872.328,734.763C872.866,734.54 873.122,733.923 872.899,733.385ZM880,724C879.418,724 878.945,724.472 878.945,725.055L878.945,731.383C878.945,731.965 879.417,732.437 880,732.437C880.582,732.437 881.055,731.965 881.055,731.383L881.055,725.055C881.055,724.472 880.582,724 880,724Z" style="fill:white;"/>
    </g>
</svg>
