<?xml version="1.0" encoding="UTF-8" standalone="no"?>
<!DOCTYPE svg PUBLIC "-//W3C//DTD SVG 1.1//EN" "http://www.w3.org/Graphics/SVG/1.1/DTD/svg11.dtd">
<svg width="100%" height="100%" viewBox="0 0 100 200" version="1.1" xmlns="http://www.w3.org/2000/svg" xmlns:xlink="http://www.w3.org/1999/xlink" xml:space="preserve" xmlns:serif="http://www.serif.com/" style="fill-rule:evenodd;clip-rule:evenodd;stroke-linejoin:round;stroke-miterlimit:2;">
    <g id="Forma-1" serif:id="Forma 1" transform="matrix(1,0,0,1,-647.5,-603.6)">
        <path d="M709.813,734.003C714.341,734.004 718.022,737.683 718.022,742.205L718.022,760.901C718.022,765.424 714.339,769.103 709.813,769.103L703.593,769.103L698.827,775.351C698.517,775.758 698.035,775.996 697.524,775.997L697.521,775.997C697.011,775.997 696.53,775.76 696.219,775.356L691.413,769.103L685.187,769.103C680.659,769.102 676.978,765.423 676.978,760.901L676.978,742.205C676.978,737.683 680.659,734.004 685.187,734.003L709.813,734.003ZM715.739,760.901L715.739,742.205C715.739,739.492 712.529,736.284 709.813,736.284L685.187,736.284C682.471,736.284 679.262,739.492 679.262,742.205L679.262,760.901C679.262,763.615 682.471,766.822 685.187,766.822L692.223,766.822C692.733,766.822 693.214,767.059 693.525,767.464L697.516,772.657L701.475,767.468C701.785,767.062 702.266,766.823 702.78,766.822L709.813,766.822C712.53,766.82 715.736,763.616 715.738,760.901L715.739,760.901ZM698.661,759.934C698.355,759.629 697.932,759.455 697.5,759.455C697.068,759.455 696.645,759.629 696.339,759.934C696.034,760.241 695.858,760.662 695.858,761.095C695.858,761.527 696.034,761.95 696.339,762.255C696.645,762.56 697.068,762.736 697.5,762.736C697.932,762.736 698.355,762.56 698.661,762.255C698.966,761.95 699.142,761.527 699.142,761.095C699.142,760.662 698.966,760.241 698.661,759.934ZM703.178,746.853C702.984,744.04 700.715,741.772 697.9,741.579C696.303,741.47 694.782,742.007 693.617,743.094C692.467,744.166 691.808,745.681 691.808,747.252C691.808,748.158 692.543,748.893 693.45,748.893C694.356,748.893 695.091,748.158 695.091,747.252C695.091,746.578 695.363,745.953 695.857,745.492C696.35,745.032 696.995,744.805 697.674,744.852C698.863,744.933 699.821,745.891 699.902,747.078C699.985,748.279 699.198,749.34 698.03,749.601C696.751,749.886 695.858,750.997 695.858,752.302L695.858,755.257C695.858,756.162 696.593,756.897 697.5,756.897C698.406,756.897 699.141,756.162 699.141,755.257L699.141,752.7C701.685,751.942 703.364,749.545 703.178,746.853Z" style="fill:white;"/>
    </g>
    <g id="Forma-11" serif:id="Forma 1" transform="matrix(1,0,0,1,-647.5,-704.6)">
        <path d="M709.813,734.003C714.341,734.004 718.022,737.683 718.022,742.205L718.022,760.901C718.022,765.424 714.339,769.103 709.813,769.103L703.593,769.103L698.827,775.351C698.517,775.758 698.035,775.996 697.524,775.997L697.521,775.997C697.011,775.997 696.53,775.76 696.219,775.356L691.413,769.103L685.187,769.103C680.659,769.102 676.978,765.423 676.978,760.901L676.978,742.205C676.978,737.683 680.659,734.004 685.187,734.003L709.813,734.003ZM715.739,760.901L715.739,742.205C715.739,739.492 712.529,736.284 709.813,736.284L685.187,736.284C682.471,736.284 679.262,739.492 679.262,742.205L679.262,760.901C679.262,763.615 682.471,766.822 685.187,766.822L692.223,766.822C692.733,766.822 693.214,767.059 693.525,767.464L697.516,772.657L701.475,767.468C701.785,767.062 702.266,766.823 702.78,766.822L709.813,766.822C712.53,766.82 715.736,763.616 715.738,760.901L715.739,760.901ZM698.661,759.934C698.355,759.629 697.932,759.455 697.5,759.455C697.068,759.455 696.645,759.629 696.339,759.934C696.034,760.241 695.858,760.662 695.858,761.095C695.858,761.527 696.034,761.95 696.339,762.255C696.645,762.56 697.068,762.736 697.5,762.736C697.932,762.736 698.355,762.56 698.661,762.255C698.966,761.95 699.142,761.527 699.142,761.095C699.142,760.662 698.966,760.241 698.661,759.934ZM703.178,746.853C702.984,744.04 700.715,741.772 697.9,741.579C696.303,741.47 694.782,742.007 693.617,743.094C692.467,744.166 691.808,745.681 691.808,747.252C691.808,748.158 692.543,748.893 693.45,748.893C694.356,748.893 695.091,748.158 695.091,747.252C695.091,746.578 695.363,745.953 695.857,745.492C696.35,745.032 696.995,744.805 697.674,744.852C698.863,744.933 699.821,745.891 699.902,747.078C699.985,748.279 699.198,749.34 698.03,749.601C696.751,749.886 695.858,750.997 695.858,752.302L695.858,755.257C695.858,756.162 696.593,756.897 697.5,756.897C698.406,756.897 699.141,756.162 699.141,755.257L699.141,752.7C701.685,751.942 703.364,749.545 703.178,746.853Z" style="fill:rgb(101,101,101);"/>
    </g>
</svg>
