<?xml version="1.0" encoding="UTF-8" standalone="no"?>
<!DOCTYPE svg PUBLIC "-//W3C//DTD SVG 1.1//EN" "http://www.w3.org/Graphics/SVG/1.1/DTD/svg11.dtd">
<svg width="100%" height="100%" viewBox="0 0 28 28" version="1.1" xmlns="http://www.w3.org/2000/svg" xmlns:xlink="http://www.w3.org/1999/xlink" xml:space="preserve" xmlns:serif="http://www.serif.com/" style="fill-rule:evenodd;clip-rule:evenodd;stroke-linejoin:round;stroke-miterlimit:2;">
    <g id="Shape-1" serif:id="Shape 1" transform="matrix(0.933352,0,0,0.933352,-405.075,-492.343)">
        <path d="M453.565,527.5C453.739,527.5 453.904,527.566 454.026,527.683L460.548,533.933C460.67,534.05 460.739,534.209 460.739,534.375L460.739,555C460.739,556.378 459.568,557.5 458.13,557.5L439.87,557.5C438.432,557.5 437.261,556.378 437.261,555L437.261,530C437.261,528.622 438.431,527.501 439.87,527.5L453.565,527.5ZM455.522,535C454.083,535 452.913,533.879 452.913,532.5L452.913,528.75L439.87,528.75C439.15,528.75 438.565,529.311 438.565,530L438.565,555C438.565,555.689 439.15,556.25 439.87,556.25L458.13,556.25C458.85,556.249 459.434,555.688 459.434,555L459.434,535L455.522,535ZM449.652,552.5C450.013,552.5 450.304,552.78 450.304,553.125C450.304,553.47 450.013,553.75 449.652,553.75L441.826,553.75C441.466,553.75 441.174,553.47 441.174,553.125C441.174,552.78 441.465,552.5 441.826,552.5L449.652,552.5ZM456.174,548.75C456.535,548.75 456.826,549.03 456.826,549.375C456.826,549.72 456.534,550 456.174,550L441.826,550C441.466,550 441.174,549.72 441.174,549.375C441.174,549.03 441.465,548.75 441.826,548.75L456.174,548.75ZM456.174,545C456.535,545.001 456.826,545.28 456.826,545.625C456.826,545.97 456.534,546.25 456.174,546.25L441.826,546.25C441.466,546.25 441.174,545.97 441.174,545.625C441.174,545.28 441.465,545.001 441.826,545L456.174,545ZM456.174,541.25C456.535,541.251 456.826,541.53 456.826,541.875C456.826,542.22 456.534,542.5 456.174,542.5L441.826,542.5C441.466,542.5 441.174,542.22 441.174,541.875C441.174,541.53 441.465,541.251 441.826,541.25L456.174,541.25ZM443.131,537.5C443.49,537.499 443.783,537.22 443.783,536.875C443.783,536.53 443.49,536.25 443.131,536.25C442.052,536.25 441.174,535.409 441.174,534.375C441.174,533.561 441.721,532.874 442.478,532.615L442.478,532.5C442.478,532.155 442.77,531.875 443.13,531.875C443.491,531.875 443.783,532.155 443.783,532.5L444.435,532.5C444.795,532.5 445.087,532.78 445.087,533.125C445.087,533.471 444.795,533.75 444.435,533.75L443.131,533.75C442.771,533.75 442.478,534.03 442.478,534.375C442.478,534.72 442.771,535 443.131,535C444.209,535 445.087,535.841 445.087,536.875C445.087,537.689 444.54,538.376 443.783,538.635L443.783,538.75C443.783,539.096 443.491,539.375 443.131,539.375C442.77,539.375 442.479,539.096 442.478,538.75L441.826,538.75C441.465,538.749 441.174,538.47 441.174,538.125C441.174,537.78 441.465,537.501 441.826,537.5L443.131,537.5ZM456.174,537.5C456.535,537.501 456.826,537.78 456.826,538.125C456.826,538.47 456.534,538.75 456.174,538.75L448.348,538.75C447.987,538.75 447.696,538.47 447.696,538.125C447.696,537.78 447.987,537.501 448.348,537.5L456.174,537.5ZM458.512,533.75L454.217,529.634L454.217,532.5C454.217,533.189 454.802,533.75 455.521,533.75L458.512,533.75Z" style="fill:rgb(101,101,101);"/>
    </g>
</svg>
