<?xml version="1.0" encoding="UTF-8" standalone="no"?>
<!DOCTYPE svg PUBLIC "-//W3C//DTD SVG 1.1//EN" "http://www.w3.org/Graphics/SVG/1.1/DTD/svg11.dtd">
<svg width="100%" height="100%" viewBox="0 0 28 28" version="1.1" xmlns="http://www.w3.org/2000/svg" xmlns:xlink="http://www.w3.org/1999/xlink" xml:space="preserve" xmlns:serif="http://www.serif.com/" style="fill-rule:evenodd;clip-rule:evenodd;stroke-linejoin:round;stroke-miterlimit:2;">
    <g id="Shape-1" serif:id="Shape 1" transform="matrix(1,0,0,1,-45.9999,-528)">
        <path d="M71.667,528C71.947,528 72.133,528.187 72.133,528.467L72.133,553.2L73.533,553.2C73.813,553.2 74,553.387 74,553.667L74,555.533C74,555.813 73.813,556 73.533,556L46.467,556C46.187,556 46,555.813 46,555.533L46,553.667C46,553.387 46.186,553.2 46.467,553.2L47.867,553.2L47.867,528.467C47.867,528.187 48.053,528 48.333,528L71.667,528ZM73.067,555.067L73.067,554.133L46.933,554.133L46.933,555.067L73.067,555.067ZM71.2,553.2L71.2,528.933L48.8,528.933L48.8,553.2L55.8,553.2L55.8,548.067C55.8,547.787 55.986,547.6 56.267,547.6L63.733,547.6C64.014,547.6 64.2,547.787 64.2,548.067L64.2,553.2L71.2,553.2ZM59.533,553.2L59.533,548.533L56.733,548.533L56.733,553.2L59.533,553.2ZM63.267,553.2L63.267,548.533L60.467,548.533L60.467,553.2L63.267,553.2ZM62.8,545.733C63.08,545.734 63.267,545.92 63.267,546.2C63.267,546.48 63.08,546.667 62.8,546.667L57.2,546.667C56.92,546.667 56.733,546.48 56.733,546.2C56.733,545.92 56.92,545.734 57.2,545.733L62.8,545.733ZM61.867,540.6C62.147,540.6 62.333,540.787 62.333,541.067L62.333,543.867C62.333,544.147 62.147,544.333 61.867,544.333L58.133,544.333C57.853,544.333 57.667,544.147 57.667,543.867L57.667,541.067C57.667,540.787 57.853,540.6 58.133,540.6L61.867,540.6ZM68.867,540.6C69.147,540.6 69.333,540.787 69.333,541.067L69.333,543.867C69.333,544.147 69.147,544.333 68.867,544.333L65.133,544.333C64.853,544.333 64.667,544.147 64.667,543.867L64.667,541.067C64.667,540.787 64.853,540.6 65.133,540.6L68.867,540.6ZM54.867,540.6C55.147,540.6 55.333,540.787 55.333,541.067L55.333,543.867C55.333,544.147 55.147,544.333 54.867,544.333L51.133,544.333C50.853,544.333 50.667,544.147 50.667,543.867L50.667,541.067C50.667,540.787 50.853,540.6 51.133,540.6L54.867,540.6ZM61.4,543.4L61.4,541.533L58.6,541.533L58.6,543.4L61.4,543.4ZM68.4,543.4L68.4,541.533L65.6,541.533L65.6,543.4L68.4,543.4ZM54.4,543.4L54.4,541.533L51.6,541.533L51.6,543.4L54.4,543.4ZM61.867,535.467C62.147,535.467 62.333,535.654 62.333,535.933L62.333,538.733C62.333,539.013 62.147,539.2 61.867,539.2L58.133,539.2C57.853,539.2 57.667,539.013 57.667,538.733L57.667,535.933C57.667,535.654 57.853,535.467 58.133,535.467L61.867,535.467ZM68.867,535.467C69.147,535.467 69.333,535.654 69.333,535.933L69.333,538.733C69.333,539.013 69.147,539.2 68.867,539.2L65.133,539.2C64.853,539.2 64.667,539.013 64.667,538.733L64.667,535.933C64.667,535.654 64.853,535.467 65.133,535.467L68.867,535.467ZM54.867,535.467C55.147,535.467 55.333,535.654 55.333,535.933L55.333,538.733C55.333,539.013 55.147,539.2 54.867,539.2L51.133,539.2C50.853,539.2 50.667,539.013 50.667,538.733L50.667,535.933C50.667,535.654 50.853,535.467 51.133,535.467L54.867,535.467ZM54.4,538.267L54.4,536.4L51.6,536.4L51.6,538.267L54.4,538.267ZM61.4,538.267L61.4,536.4L58.6,536.4L58.6,538.267L61.4,538.267ZM68.4,538.267L68.4,536.4L65.6,536.4L65.6,538.267L68.4,538.267ZM61.867,530.333C62.147,530.334 62.333,530.52 62.333,530.8L62.333,533.6C62.333,533.88 62.147,534.067 61.867,534.067L58.133,534.067C57.853,534.067 57.667,533.88 57.667,533.6L57.667,530.8C57.667,530.52 57.853,530.334 58.133,530.333L61.867,530.333ZM68.867,530.333C69.147,530.334 69.333,530.52 69.333,530.8L69.333,533.6C69.333,533.88 69.147,534.067 68.867,534.067L65.133,534.067C64.853,534.067 64.667,533.88 64.667,533.6L64.667,530.8C64.667,530.52 64.853,530.334 65.133,530.333L68.867,530.333ZM54.867,530.333C55.147,530.334 55.333,530.52 55.333,530.8L55.333,533.6C55.333,533.88 55.147,534.067 54.867,534.067L51.133,534.067C50.853,534.067 50.667,533.88 50.667,533.6L50.667,530.8C50.667,530.52 50.853,530.334 51.133,530.333L54.867,530.333ZM54.4,533.133L54.4,531.267L51.6,531.267L51.6,533.133L54.4,533.133ZM61.4,533.133L61.4,531.267L58.6,531.267L58.6,533.133L61.4,533.133ZM68.4,533.133L68.4,531.267L65.6,531.267L65.6,533.133L68.4,533.133Z" style="fill:rgb(101,101,101);"/>
    </g>
</svg>
